# xmcd
#
# Track frame offsets:
#  150
#  24897
#  49337
#  67190
#  89343
#  107018
#  127863
#  151073
#  168026
#  183805
#  199151
#  209635
#  222117
#  234016
#  246900
#
# Disc length: 3491 seconds
#
# Revision: 0
# Processed by: cddbd v1.5.1PL2 Copyright (c) Steve Scherf et al.
# Submitted via: Collectorz.com_Music_Collector 6.9
#
DISCID=c10da10f
DTITLE=Various Artist - Soul Party Sessions [CD2]
DYEAR=1900
DGENRE=
TTITLE0=The Dells - All About The Paper
TTITLE1=James Mason - Sweet Power Your Embrace
TTITLE2=Unlimited Love - I Hear Music In The Streets
TTITLE3=Brand New Heavies - Dream Come True
TTITLE4=Jeanette 'Lady' Day - Come Let Me Love You
TTITLE5=D-Train - You're The One For Me
TTITLE6=The Whispers - It's A Love Thing
TTITLE7=The Supremes - The Four Tops - Love The One You're With
TTITLE8=The Carstairs - It Really Hurts Me Girl
TTITLE9=Eloise Laws - Love Factory
TTITLE10=Aretha Franklin - Save Me
TTITLE11=The Village Callers - Hector
TTITLE12=Bill Brandon - Full Grown Lovin' Man
TTITLE13=Eddie Bo - We're Doin It (The Thang) Pt.1
TTITLE14=The Honeydrippers - Impeach The President
EXTD=
EXTT0=
EXTT1=
EXTT2=
EXTT3=
EXTT4=
EXTT5=
EXTT6=
EXTT7=
EXTT8=
EXTT9=
EXTT10=
EXTT11=
EXTT12=
EXTT13=
EXTT14=
PLAYORDER=
